<?xml version="1.0" encoding="utf-8"?>
<!-- Generator: Adobe Illustrator 25.3.1, SVG Export Plug-In . SVG Version: 6.00 Build 0)  -->
<svg version="1.1" id="Layer_1" xmlns="http://www.w3.org/2000/svg" xmlns:xlink="http://www.w3.org/1999/xlink" x="0px" y="0px"
	 viewBox="0 0 2048 2048" style="enable-background:new 0 0 2048 2048;" xml:space="preserve">
<style type="text/css">
	.st0{fill:none;}
	.st1{fill:#006937;stroke:#8DC640;stroke-width:4;stroke-miterlimit:10;}
	.st2{fill:#6ABD45;stroke:#8DC640;stroke-width:4;stroke-miterlimit:10;}
	.st3{fill:#009B4F;stroke:#FFFFFF;stroke-width:6;stroke-miterlimit:10;}
	.st4{enable-background:new    ;}
	.st5{stroke:#000000;stroke-width:4;stroke-miterlimit:10;}
</style>
<rect x="336.4" y="1301.6" class="st0" width="1375.3" height="289.3"/>
<g>
	<g>
		<path class="st1" d="M1017.5,994.1c30.3-2.4,55.1-15.8,73.8-30.7c-14.5,14.6-30.2,24.6-46.7,28.9
			C1035.4,994.5,1026.3,994.9,1017.5,994.1z"/>
		<path class="st2" d="M1165.2,809.4c-0.2,0.8-0.4,1.7-0.6,2.5c-4.7,20.5-10.7,40.3-17.7,58.6c-0.6,1.4-1,2.7-1.6,4.1
			c-11-65.6-71.8-103.6-71.8-103.6c-12.8-7.4-27.8-13.8-43.9-15.4c-45.1,3.6-77.3,31-96.5,53.7c-7.4,9.4-14.6,19.7-21.4,30.8
			c-0.2,0.3-0.3,0.5-0.3,0.5c-7.1,15.4-12.5,33.3-11,52.1c-2.2-7.1-4-14.7-5-22.8c-4.1-34.2,5.4-76.2,41.9-126
			c6.2-8.4,13-17,20.8-25.9c6.7-7.6,14-15.4,21.8-23.2c189.5-189.5,50.9-252.4,46.8-254.1c21.5,8.4,53.6,24.4,81.7,54.7
			C1179.6,571.9,1189.4,701.4,1165.2,809.4z"/>
		<path class="st1" d="M933,809.5c-7.4,9.4-14.6,19.7-21.4,30.8C913.1,837.7,920.2,824.6,933,809.5z"/>
		<path class="st1" d="M1453.9,887.7c-8.4,21.5-24.4,53.6-54.7,81.7c-77,71.5-208.3,80.9-316.9,55.8c-8-1.9-15.8-3.8-23.5-6.1
			c-24.2-6.9-46.8-15.5-67-25.6l0,0c-46.9-23.3-80.6-54.1-89.3-88.2c-1-4.1-1.7-8.3-2.1-12.5c19.3,60.3,79.6,90.5,79.6,90.5
			c11.3,5.2,24,9.5,37.4,10.8c30.3-2.4,55.1-15.8,73.8-30.7c21.2-21.3,39.6-52.3,54-88.6c-11-65.6-71.8-103.6-71.8-103.6
			c-12.8-7.4-27.8-13.8-43.9-15.4c8.5-0.7,17.6-0.6,27.1,0.7c30.5,3.9,65.9,18.7,105.9,50.8c0.8,0.7,1.7,1.4,2.6,2.1
			c11.1,9.1,22.7,19.5,34.6,31.4C1389.2,1030.3,1452.2,891.7,1453.9,887.7z"/>
		<path class="st1" d="M933,809.5c23.4-29.5,50-49,77.1-53.2c6.7-1,13.1-1.1,19.5-0.5C984.5,759.4,952.2,786.8,933,809.5z"/>
		<path class="st2" d="M1104.7,999.9c-6.6,8.2-14,16.7-22.4,25.3c-10.5,10.8-22.4,21.7-36,33c-207.6,171.7-73,247.3-70.5,248.6
			c-20.5-10.5-51.1-29.3-76.2-62.2c-63.1-82.3-61-211.7-27-316.7c1.5-4.5,3-9,4.6-13.4c5.5-15.5,11.7-30.3,18.5-44.4
			c5.1-10.5,10.5-20.4,16.1-29.8c-0.2,0.3-0.3,0.5-0.3,0.5c-7.1,15.4-12.5,33.3-11,52.1c19.3,60.3,79.6,90.5,79.6,90.5
			c11.3,5.2,24,9.5,37.4,10.8c30.3-2.4,55.1-15.8,73.8-30.7c21.2-21.3,39.6-52.3,54-88.6c0.3,1.6,0.5,3.2,0.7,4.8
			C1150.3,913.1,1141.2,953.8,1104.7,999.9z"/>
		<path class="st1" d="M1146.9,870.6c-0.1,3-0.5,6-0.8,8.9c-2.1,13.4-7.1,25.9-13,37c0,0-14.4,25.1-41.7,46.8
			c21.2-21.3,39.6-52.3,54-88.6c-11-65.6-71.8-103.6-71.8-103.6c-12.8-7.4-27.8-13.8-43.9-15.4c-45.1,3.6-77.3,31-96.5,53.7
			c-7.4,9.4-14.6,19.7-21.4,30.8c-0.2,0.3-0.3,0.5-0.3,0.5c-7.1,15.4-12.5,33.3-11,52.1c19.3,60.3,79.6,90.5,79.6,90.5
			c11.3,5.2,24,9.5,37.4,10.8c-8.1,0.7-16.7,0.6-25.7-0.6l0,0c-30.2-3.7-64.7-18.5-103.3-51.1c-5.2-4.5-10.7-9.3-16.1-14.5
			c-8.9-8.4-18-17.9-27.3-28.3c-178.1-200.4-249.1-65.5-250.9-61.7c9.7-20.9,27.5-52.1,59.4-78.4c77.3-63.8,200.6-68.2,304.6-41.2
			c7,1.8,14.1,3.8,20.9,5.9c28.1,8.7,54.4,19.7,77.5,32.3c48.1,26.5,82.2,60.3,89,96.2C1146.8,858.7,1147.2,864.8,1146.9,870.6z"/>
		<path class="st3" d="M1249.3,776.9c-1-2.5-2.2-5-3.2-7.5c-38.4-84.6-123.6-143.4-222.6-143.4c-24.6,0-48.4,3.7-70.8,10.4
			c-24,7.2-46.4,18.1-66.6,31.8C821.5,712.4,779,786.5,779,870.5c0,24.4,3.6,48.1,10.3,70.4c4.7,15.5,10.9,30.5,18.5,44.6
			c41.1,77,122.2,129.4,215.6,129.4c19.5,0,38.5-2.2,56.7-6.7c26.3-6.3,51.1-16.8,73.3-30.8c68.8-43.3,114.4-119.8,114.4-207
			C1267.7,837.4,1261.2,805.8,1249.3,776.9z M1014,1068.2c-21.4-2.1-41.7-8.9-59.8-17.2c0,0-96.5-48.2-127.3-144.6
			c-2.4-29.9,6.1-58.6,17.4-83.3c0,0,0.1-0.3,0.4-0.7c10.8-17.9,22.2-34.4,34.1-49.4c30.8-36.3,82.2-80.1,154.4-85.9
			c25.8,2.5,49.7,12.6,70.3,24.5c0,0,97.4,60.8,114.9,165.6c-22.9,58.3-52.6,107.7-86.4,141.7
			C1101.9,1043,1062.4,1064.2,1014,1068.2z"/>
	</g>
	<g class="st4">
		<path class="st5" d="M460.6,1393.2v19.9h-39.8v129.3h-24.4v-129.2h-40v-20.1H460.6z"/>
		<path class="st5" d="M571.8,1428c7.1,3.9,12.6,9.6,16.8,17.2c4.1,7.6,6.1,16.8,6.1,27.5v69.8h-24.3v-66.2
			c0-10.6-2.6-18.8-7.9-24.4c-5.3-5.7-12.5-8.5-21.7-8.5s-16.4,2.8-21.8,8.5c-5.4,5.7-8,13.8-8,24.4v66.2h-24.4v-158.9h24.4v54.3
			c4.1-5,9.4-8.8,15.8-11.6c6.4-2.7,13.3-4.1,20.9-4.1C556.5,1422.2,564.7,1424.1,571.8,1428z"/>
		<path class="st5" d="M734.3,1492.4H644c0.7,9.4,4.2,17,10.5,22.8c6.3,5.8,14,8.6,23.2,8.6c13.2,0,22.4-5.5,28-16.5h26.4
			c-3.5,10.9-10,19.8-19.5,26.8c-9.3,7-21,10.4-34.9,10.4c-11.3,0-21.5-2.6-30.4-7.7s-15.9-12.3-21-21.5c-5.1-9.2-7.7-19.9-7.7-32.1
			c0-12.2,2.5-22.9,7.4-32.1c5-9.2,11.9-16.4,20.9-21.4c9-5,19.2-7.6,30.8-7.6c11.2,0,21.1,2.5,29.8,7.3
			c8.7,4.8,15.6,11.7,20.4,20.5c4.8,8.8,7.3,18.9,7.3,30.4C735.3,1484.9,734.9,1488.9,734.3,1492.4z M709.7,1472.7
			c-0.1-9-3.4-16.3-9.7-21.7c-6.3-5.4-14.2-8.1-23.4-8.1c-8.5,0-15.7,2.7-21.7,8c-6,5.3-9.6,12.6-10.7,21.8H709.7z"/>
		<path class="st5" d="M847,1534.2c-11.7-6.5-20.9-15.6-27.7-27.3s-10.1-24.8-10.1-39.4s3.4-27.7,10.1-39.3
			c6.8-11.6,16-20.6,27.7-27.1s24.4-9.8,38.3-9.8c14,0,26.9,3.3,38.6,9.8s20.9,15.6,27.6,27.1s10.1,24.7,10.1,39.3
			s-3.4,27.7-10.1,39.4c-6.7,11.7-15.9,20.8-27.6,27.3s-24.5,9.8-38.6,9.8C871.4,1544,858.7,1540.7,847,1534.2z M911.8,1515.9
			c7.8-4.5,13.8-11,18.2-19.3c4.4-8.4,6.6-18.1,6.6-29.1c0-11-2.2-20.6-6.6-29c-4.4-8.3-10.4-14.6-18.2-19.1
			c-7.8-4.5-16.5-6.6-26.4-6.6s-18.6,2.2-26.4,6.6c-7.8,4.5-13.8,10.9-18.2,19.1c-4.4,8.3-6.6,17.9-6.6,29c0,11,2.1,20.8,6.6,29.1
			c4.4,8.4,10.4,14.9,18.2,19.3c7.8,4.5,16.5,6.7,26.4,6.7S904,1520.5,911.8,1515.9z"/>
		<path class="st5" d="M1025.4,1427.3c5.9-3.3,13-5.1,21.1-5.1v25.4h-6.3c-9.6,0-16.9,2.5-21.8,7.3s-7.4,13.3-7.4,25.4v62.3h-24.4
			v-118.3h24.4v17.2C1014.8,1435.3,1019.5,1430.6,1025.4,1427.3z"/>
		<path class="st5" d="M1069.4,1451.1c5-9.2,11.8-16.4,20.5-21.4c8.7-5,18.8-7.6,30.1-7.6c14.3,0,26.2,3.4,35.5,10.1
			c9.3,6.8,15.7,16.5,19,29.1h-26.4c-2.1-5.9-5.5-10.5-10.3-13.7c-4.7-3.3-10.6-5-17.8-5c-10,0-18.1,3.5-23.9,10.6
			c-5.9,7.1-9,17-9,29.7c0,12.7,2.9,22.7,9,29.8c5.9,7.2,13.9,10.7,23.9,10.7c14.2,0,23.6-6.3,28.1-18.6h26.4
			c-3.4,12-9.9,21.6-19.3,28.7s-21.2,10.6-35.2,10.6c-11.3,0-21.4-2.6-30.1-7.7c-8.7-5.1-15.6-12.3-20.5-21.5
			c-5-9.2-7.4-19.9-7.4-32.1C1062.1,1471.1,1064.5,1460.3,1069.4,1451.1z"/>
		<path class="st5" d="M1285.4,1428c7.1,3.9,12.6,9.6,16.8,17.2c4.1,7.6,6.1,16.8,6.1,27.5v69.8H1284v-66.2
			c0-10.6-2.6-18.8-7.9-24.4c-5.3-5.7-12.5-8.5-21.7-8.5c-9.2,0-16.4,2.8-21.8,8.5c-5.3,5.7-8,13.8-8,24.4v66.2h-24.4v-158.9h24.4
			v54.3c4.1-5,9.4-8.8,15.8-11.6c6.4-2.7,13.3-4.1,20.9-4.1C1270.3,1422.2,1278.3,1424.1,1285.4,1428z"/>
		<path class="st5" d="M1339.8,1451.2c5-9.2,11.7-16.3,20.2-21.4s17.9-7.7,28.2-7.7c9.3,0,17.5,1.8,24.4,5.4
			c7,3.7,12.5,8.1,16.6,13.7v-17.2h24.7v118.3h-24.7v-17.6c-4.1,5.5-9.8,10.3-17,13.9c-7.2,3.8-15.3,5.5-24.4,5.5
			c-10.1,0-19.5-2.6-28-7.8s-15.1-12.5-20.1-21.9c-5-9.3-7.4-20.1-7.4-31.9C1332.4,1470.8,1334.8,1460.3,1339.8,1451.2z
			 M1424.1,1462c-3.4-6-7.8-10.6-13.2-13.7c-5.4-3.2-11.3-4.7-17.6-4.7c-6.3,0-12.2,1.5-17.6,4.6c-5.4,3.1-9.8,7.6-13.2,13.6
			c-3.4,5.9-5.1,13-5.1,21.1c0,8.1,1.7,15.3,5.1,21.5c3.3,6.1,7.8,10.9,13.3,14c5.5,3.2,11.3,4.8,17.5,4.8c6.3,0,12.2-1.5,17.6-4.7
			c5.4-3.2,9.8-7.8,13.2-13.8c3.3-6.1,5.1-13.2,5.1-21.4C1429.2,1475.2,1427.6,1468,1424.1,1462z"/>
		<path class="st5" d="M1526,1427.3c5.9-3.3,13-5.1,21.1-5.1v25.4h-6.3c-9.6,0-16.9,2.5-21.8,7.3c-5,4.8-7.4,13.3-7.4,25.4v62.3
			h-24.4v-118.3h24.4v17.2C1515.2,1435.3,1519.9,1430.6,1526,1427.3z"/>
		<path class="st5" d="M1570,1451.2c5-9.2,11.7-16.3,20.2-21.4s18.1-7.7,28.4-7.7c7.8,0,15.3,1.7,22.9,5.1s13.4,7.8,17.9,13.4v-57.1
			h24.7v158.9h-24.7v-17.8c-4,5.8-9.6,10.5-16.6,14.2c-7.1,3.8-15.2,5.5-24.4,5.5c-10.3,0-19.7-2.6-28.2-7.8
			c-8.5-5.2-15.2-12.5-20.2-21.9c-5-9.3-7.4-20.1-7.4-31.9C1562.5,1470.8,1565,1460.3,1570,1451.2z M1654.3,1462
			c-3.4-6-7.8-10.6-13.2-13.7c-5.4-3.2-11.3-4.7-17.6-4.7c-6.3,0-12.2,1.5-17.6,4.6c-5.4,3.1-9.8,7.6-13.2,13.6
			c-3.4,5.9-5.1,13-5.1,21.1c0,8.1,1.7,15.3,5.1,21.5c3.3,6.1,7.8,10.9,13.3,14c5.5,3.2,11.3,4.8,17.5,4.8c6.3,0,12.2-1.5,17.6-4.7
			c5.4-3.2,9.8-7.8,13.2-13.8c3.3-6.1,5.1-13.2,5.1-21.4C1659.4,1475.2,1657.7,1468,1654.3,1462z"/>
	</g>
</g>
</svg>
